<svg id="svg" version="1.1" xmlns="http://www.w3.org/2000/svg" xmlns:xlink="http://www.w3.org/1999/xlink" width="400" height="400" viewBox="0, 0, 400,400"><g id="svgg"><path id="path0" d="M265.921 258.152 C 258.901 259.346,259.160 269.971,266.226 270.650 C 270.463 271.057,273.351 268.397,273.325 264.111 C 273.301 260.076,270.039 257.452,265.921 258.152 M293.589 266.460 C 289.162 267.487,289.499 267.101,288.726 272.037 C 287.717 278.480,288.338 277.778,283.651 277.778 L 279.604 277.778 279.709 281.574 L 279.815 285.370 283.796 285.475 L 287.778 285.581 287.778 300.184 C 287.778 316.990,287.879 317.650,290.847 320.190 C 293.792 322.711,302.387 323.447,308.148 321.672 C 310.964 320.804,310.962 320.808,310.194 317.444 C 309.281 313.448,309.433 313.584,306.638 314.243 C 302.988 315.103,300.626 314.999,299.373 313.921 L 298.333 313.028 298.220 299.303 L 298.106 285.577 303.032 285.474 L 307.958 285.370 308.390 282.963 C 308.627 281.639,308.922 279.931,309.045 279.167 L 309.268 277.778 303.708 277.778 L 298.148 277.778 298.148 271.667 C 298.148 267.008,298.038 265.563,297.685 265.587 C 297.431 265.604,295.587 265.997,293.589 266.460 M114.167 277.609 C 110.111 278.701,106.478 281.418,104.772 284.635 C 103.721 286.615,103.489 286.682,103.186 285.093 C 102.885 283.517,101.297 280.129,100.162 278.641 L 99.263 277.462 95.465 278.939 C 90.844 280.737,90.829 280.750,91.771 282.288 C 94.485 286.718,95.182 292.095,95.184 308.611 L 95.185 322.222 100.535 322.222 L 105.884 322.222 105.999 308.611 C 106.127 293.478,106.131 293.453,108.873 289.468 C 112.252 284.557,118.196 284.201,119.675 288.820 C 119.971 289.746,120.164 295.337,120.274 306.204 L 120.437 322.222 125.568 322.222 L 130.699 322.222 130.816 308.611 C 130.929 295.457,130.961 294.930,131.775 292.909 C 134.678 285.699,141.639 282.992,144.153 288.095 C 144.991 289.796,145.001 289.996,145.114 306.019 L 145.228 322.222 150.392 322.222 L 155.556 322.222 155.550 305.463 C 155.543 283.136,154.974 280.900,148.580 278.059 C 142.712 275.451,131.393 279.103,129.801 284.117 C 129.468 285.166,129.092 284.965,128.542 283.443 C 126.768 278.539,120.366 275.940,114.167 277.609 M180.479 277.596 C 166.172 280.705,159.084 299.794,166.662 314.806 C 172.129 325.637,189.191 325.660,193.222 314.843 L 193.971 312.834 194.220 314.498 C 194.641 317.305,197.643 322.963,198.712 322.963 C 199.115 322.963,206.282 320.137,206.544 319.875 C 206.613 319.807,206.175 318.763,205.571 317.556 C 203.073 312.557,202.609 308.670,202.600 292.685 C 202.596 285.505,202.528 279.630,202.448 279.630 C 202.369 279.630,200.660 279.289,198.652 278.872 C 189.877 277.053,184.661 276.687,180.479 277.596 M233.350 277.442 C 229.188 278.258,225.842 281.015,224.215 284.971 C 223.369 287.027,223.121 287.081,222.792 285.278 C 222.472 283.523,220.265 278.871,219.376 278.076 C 218.750 277.516,218.420 277.588,214.572 279.132 L 210.441 280.789 211.334 282.339 C 214.450 287.744,214.810 291.514,214.813 318.796 C 214.815 341.780,214.817 341.852,215.573 341.852 C 216.516 341.852,224.897 340.363,225.278 340.128 C 225.430 340.034,225.556 336.043,225.556 331.259 L 225.556 322.562 229.722 322.799 C 246.697 323.765,256.867 309.672,252.723 290.926 C 250.471 280.736,243.016 275.547,233.350 277.442 M261.932 296.944 L 262.037 316.111 263.106 318.040 C 265.313 322.023,270.969 323.775,276.384 322.152 C 278.242 321.595,278.280 321.473,277.692 317.933 L 277.204 315.000 275.299 314.889 C 272.241 314.711,272.421 315.866,272.301 295.684 L 272.195 277.778 267.011 277.778 L 261.826 277.778 261.932 296.944 M191.237 285.412 C 192.506 285.812,191.976 302.139,190.561 306.263 C 187.077 316.417,178.673 318.680,176.052 310.169 C 175.065 306.963,175.062 295.234,176.047 292.120 C 178.013 285.912,184.180 283.189,191.237 285.412 M238.451 285.567 C 242.872 288.262,243.664 304.876,239.671 311.171 C 237.587 314.457,230.254 316.397,226.204 314.734 C 225.191 314.318,225.243 299.487,226.272 295.465 C 228.391 287.180,233.837 282.754,238.451 285.567 " stroke="none" fill="#fcfcfc" fill-rule="evenodd"></path><path id="path1" d="M187.869 112.685 L 187.963 177.963 194.074 177.963 L 200.185 177.963 200.279 112.685 L 200.372 47.407 194.074 47.407 L 187.776 47.407 187.869 112.685 M211.571 71.204 L 211.667 95.000 252.943 95.094 C 275.645 95.146,294.357 95.050,294.526 94.881 C 294.695 94.713,286.995 89.352,277.416 82.969 C 267.837 76.586,260.000 71.250,260.000 71.111 C 260.000 70.972,267.833 65.639,277.407 59.259 C 286.981 52.880,294.815 47.603,294.815 47.534 C 294.815 47.464,276.064 47.407,253.145 47.407 L 211.476 47.407 211.571 71.204 M105.185 154.205 L 105.185 201.743 134.599 219.390 C 150.777 229.096,164.193 237.037,164.413 237.037 C 164.634 237.037,180.715 229.087,200.151 219.370 L 235.488 201.702 264.936 219.370 C 281.132 229.087,294.480 237.037,294.599 237.037 C 294.718 237.037,294.815 215.645,294.815 189.499 L 294.815 141.961 265.401 124.314 C 249.223 114.608,235.806 106.667,235.584 106.667 C 235.362 106.667,229.848 109.334,223.331 112.594 L 211.481 118.521 211.481 124.979 C 211.481 128.663,211.633 131.531,211.834 131.655 C 212.027 131.775,216.027 129.951,220.723 127.602 L 229.259 123.330 229.259 157.220 L 229.259 191.110 200.000 205.741 L 170.741 220.371 170.741 186.486 L 170.741 152.601 173.704 151.111 L 176.667 149.621 176.667 143.166 C 176.667 139.520,176.515 136.616,176.317 136.494 C 176.125 136.376,173.388 137.565,170.236 139.137 L 164.504 141.996 135.060 124.331 C 118.866 114.616,105.520 106.667,105.401 106.667 C 105.282 106.667,105.185 128.059,105.185 154.205 M262.438 136.906 L 282.593 148.996 282.593 182.289 C 282.593 213.888,282.560 215.563,281.944 215.217 C 281.588 215.016,272.463 209.543,261.667 203.055 L 242.037 191.259 241.942 158.037 C 241.890 139.765,241.946 124.815,242.065 124.815 C 242.185 124.815,251.353 130.256,262.438 136.906 M138.333 140.648 L 157.963 152.445 158.058 185.667 C 158.110 203.939,158.054 218.889,157.935 218.889 C 157.815 218.889,148.647 213.448,137.562 206.798 L 117.407 194.707 117.407 161.415 C 117.407 129.815,117.440 128.141,118.056 128.487 C 118.412 128.688,127.537 134.160,138.333 140.648 " stroke="none" fill="#1cbc84" fill-rule="evenodd"></path><path id="path2" d="" stroke="none" fill="#c8dc100" fill-rule="evenodd"></path><path id="path3" d="" stroke="none" fill="#54dcc4" fill-rule="evenodd"></path><path id="path4" d="" stroke="none" fill="#58dc84" fill-rule="evenodd"></path></g></svg>